<svg version="1" xmlns="http://www.w3.org/2000/svg" width="666.667" height="666.667" viewBox="0 0 500.000000 500.000000"><path d="M291.5 148.2c-13.2.5-24.6 1.1-25.2 1.3-1 .4-1.3 20.8-1.3 97.9v97.4l8.3.6c20.3 1.5 78.1 2.8 101.5 2.3 34.4-.7 49.9-3.5 66.8-11.8 19.9-9.8 29.4-25.5 29.4-48.6-.1-25.3-10.4-43-31-53l-7.7-3.7 6-3.6c14.5-8.6 21.5-21.2 20.4-37.1-1.5-22.3-16.9-34.2-52.7-40.5-7.7-1.4-17.3-1.8-50-1.9-22.3-.2-51.3.2-64.5.7zm84.8 49.1c1.8.8 3.8 2.2 4.6 3.1 1.8 2.2 1.7 9.5-.2 13.2-2 3.7-9 10.4-14.4 13.7-3.8 2.4-22.2 10.7-23.7 10.7-.3 0-.6-6.9-.6-15.3v-15.3l7-3.7c13.2-7.2 21-9 27.3-6.4zm9 63.9c1 .5 2.2 2 2.7 3.4 3.2 8.4-2 18.7-12.7 25-4.4 2.6-30.4 13.4-32.3 13.4-.7 0-1-4.6-.8-14.8l.3-14.7 12.1-6.1c15.6-7.9 24.1-9.6 30.7-6.2zM121.7 211.2c-.2 48.4-.6 62.1-1.7 65-2 5.6-6.5 10.4-11.5 12.3-4.3 1.7-4.5 1.7-9.2-.6-3.5-1.8-5.5-3.6-7.3-6.9-2.3-4.1-2.5-5.9-3-19l-.5-14.5-34 4.6c-18.7 2.6-34.2 4.8-34.4 4.8-.2.1-.1 7.6.2 16.8.4 12.2 1.1 18.9 2.5 24.4 9.4 35.3 40.3 53.3 88.6 51.6 29.8-1 45.9-7 62.2-23.2 8-8 9.8-10.4 14.3-19.6 5.6-11.4 9.3-24.4 11-38.4.7-5.5 1.1-30.1 1.1-63.8V150h-77.9l-.4 61.2z"/></svg>